<svg xmlns="http://www.w3.org/2000/svg" viewBox="0 0 800 400">
  <defs>
    <linearGradient id="grad_blog_web" x1="0%" y1="0%" x2="100%" y2="100%">
      <stop offset="0%" style="stop-color:#4285F4"/>
      <stop offset="100%" style="stop-color:#34A853"/>
    </linearGradient>
  </defs>
  <rect width="800" height="400" fill="#f8f9fa"/>
  <rect width="800" height="400" fill="url(#grad_blog_web)" opacity="0.1"/>
  
  <!-- Browser Window -->
  <g transform="translate(150, 80)">
    <rect x="0" y="0" width="500" height="300" rx="8" fill="white" filter="drop-shadow(0 4px 12px rgba(0,0,0,0.1))"/>
    <rect x="0" y="0" width="500" height="40" rx="8" fill="#e0e0e0"/>
    <rect x="0" y="20" width="500" height="20" fill="#e0e0e0"/> <!-- Square bottom corners of header -->
    <circle cx="25" cy="20" r="6" fill="#ff5f56"/>
    <circle cx="45" cy="20" r="6" fill="#ffbd2e"/>
    <circle cx="65" cy="20" r="6" fill="#27c93f"/>
    
    <!-- Code Blocks -->
    <rect x="50" y="80" width="200" height="20" rx="4" fill="#4285F4" opacity="0.2"/>
    <rect x="50" y="110" width="300" height="10" rx="2" fill="#e0e0e0"/>
    <rect x="50" y="130" width="250" height="10" rx="2" fill="#e0e0e0"/>
    
    <rect x="50" y="170" width="100" height="100" rx="4" fill="#34A853" opacity="0.2"/>
    <rect x="170" y="170" width="100" height="100" rx="4" fill="#FBBC05" opacity="0.2"/>
    <rect x="290" y="170" width="100" height="100" rx="4" fill="#EA4335" opacity="0.2"/>
  </g>
</svg>
