<svg xmlns="http://www.w3.org/2000/svg" viewBox="0 0 800 400">
  <defs>
    <linearGradient id="grad_design" x1="0%" y1="0%" x2="100%" y2="100%">
      <stop offset="0%" style="stop-color:#F472B6"/>
      <stop offset="100%" style="stop-color:#BE185D"/>
    </linearGradient>
  </defs>
  <rect width="800" height="400" fill="url(#grad_design)" />
  
  <!-- Abstract Shapes -->
  <circle cx="200" cy="100" r="50" fill="white" opacity="0.1"/>
  <circle cx="600" cy="300" r="80" fill="white" opacity="0.1"/>
  
  <!-- UI Window -->
  <rect x="250" y="80" width="300" height="200" rx="8" fill="white" opacity="0.95"/>
  <!-- Window Controls -->
  <circle cx="270" cy="100" r="5" fill="#EF4444"/>
  <circle cx="290" cy="100" r="5" fill="#F59E0B"/>
  <circle cx="310" cy="100" r="5" fill="#10B981"/>
  
  <!-- UI Elements inside -->
  <rect x="280" y="130" width="100" height="80" rx="4" fill="#F3F4F6"/>
  <rect x="400" y="130" width="120" height="10" rx="2" fill="#E5E7EB"/>
  <rect x="400" y="150" width="80" height="10" rx="2" fill="#E5E7EB"/>
  <rect x="400" y="180" width="100" height="30" rx="4" fill="#DB2777"/>
  
  <!-- Cursor -->
  <path d="M450 200 L460 230 L470 220 L480 230 L485 220 L475 215 L485 210 Z" fill="#111827" stroke="white" stroke-width="2"/>

  <text x="400" y="340" font-family="Arial, sans-serif" font-size="30" fill="white" font-weight="bold" text-anchor="middle" letter-spacing="4">UI/UX</text>
</svg>
